# xmcd CD database file
#
# Track frame offsets:
#	150
#	12580
#	24155
#	37918
#	50102
#	64666
#	74229
#	88082
#	102716
#	116146
#
# Disc length: 1710 seconds
#
# Revision: 3
# Processed by: cddbd v1.4PL0 Copyright (c) Steve Scherf et al.
# Submitted via: CDex 1.40Release
#
DISCID=9106ac0a
DTITLE=Alex Arrellano - Alex Arrellano
DYEAR=2001
DGENRE=Latin
TTITLE0=Una De Borrachos
TTITLE1=Un Dia Con Otro
TTITLE2=Cuando El Destino
TTITLE3=Paloma Querida
TTITLE4=Echame La Tierra Encima
TTITLE5=La Higuerita
TTITLE6=Con Cartitas
TTITLE7=Palabra De Rey
TTITLE8=Como Te Extraño
TTITLE9=Alegre, Alegre, Alegre: 
EXTD=YEAR: 2001 ID3G: 86
EXTT0=
EXTT1=
EXTT2=
EXTT3=
EXTT4=
EXTT5=
EXTT6=
EXTT7=
EXTT8=
EXTT9=
PLAYORDER=
